<?xml version="1.0" encoding="UTF-8" standalone="no"?>
<!DOCTYPE svg PUBLIC "-//W3C//DTD SVG 1.1//EN" "http://www.w3.org/Graphics/SVG/1.1/DTD/svg11.dtd">
<svg version="1.1" xmlns="http://www.w3.org/2000/svg" xmlns:xlink="http://www.w3.org/1999/xlink" preserveAspectRatio="xMidYMid meet" viewBox="0 0 250 300" width="250" height="300"><defs><path d="M143.2 36.8C157.36 38.46 166.22 39.49 169.76 39.9C177.51 40.81 182.36 48.74 179.63 56.06C178.03 60.36 174.01 71.13 167.58 88.35L143.2 36.8Z" id="h1aMOfa97m"></path><path d="M110.91 36.3C96.75 37.96 87.9 38.99 84.36 39.4C76.6 40.31 71.75 48.24 74.48 55.56C76.09 59.86 80.1 70.63 86.53 87.85L110.91 36.3Z" id="aDqmyMB9a"></path><path d="M175.9 182.07C176.35 157.88 176.63 142.76 176.74 136.72C177.1 117.15 173.08 97.76 164.96 79.95C157.57 63.73 149.48 45.96 142.53 30.71C136.74 18.01 118.79 17.77 112.67 30.31C105.19 45.65 95.64 65.22 87.55 81.82C79.47 98.39 75.27 116.58 75.27 135.02C75.27 141.29 75.27 156.97 75.27 182.07L175.9 182.07Z" id="b5O79yh051"></path><path d="M132.59 186.04C146.66 194.73 155.46 200.17 158.98 202.34C158.98 202.34 173.89 209.08 183.1 214.16C184.09 214.71 190.61 216.42 202.68 219.32C210.46 221.18 216.2 227.77 216.98 235.72C217.23 238.22 216.73 233.16 217 235.85C217.8 244.04 217.44 252.3 215.92 260.38C215.59 262.1 214.78 266.39 213.49 273.26C216.26 271.31 217.99 270.09 218.68 269.6C228.89 262.4 235.37 251.03 236.36 238.57C236.67 234.78 236.31 239.22 236.69 234.46C237.43 225.14 233.72 216.01 226.67 209.86C224.75 208.18 230.07 212.83 228.13 211.13C220.83 204.77 212.21 200.11 202.89 197.52C198.9 196.41 201.71 197.19 197.88 196.12C188.1 193.4 179.18 188.2 171.99 181.04C171.29 180.34 169.53 178.59 166.72 175.8L132.59 186.04Z" id="d2wHkp0RJ5"></path><path d="M112.97 177.9C123.65 190.53 130.33 198.43 133 201.58C133 201.58 145.09 212.61 152.27 220.3C153.04 221.12 158.71 224.78 169.29 231.27C176.11 235.45 179.52 243.49 177.8 251.3C177.26 253.75 178.36 248.79 177.78 251.42C176.01 259.46 173.1 267.2 169.14 274.41C168.3 275.95 166.2 279.78 162.85 285.91C166.08 284.91 168.11 284.29 168.91 284.04C180.86 280.35 190.54 271.55 195.35 260.01C196.81 256.51 195.1 260.61 196.93 256.21C200.53 247.57 199.82 237.75 195.03 229.72C193.72 227.52 197.34 233.6 196.02 231.37C191.06 223.06 184.3 215.96 176.24 210.6C172.8 208.31 175.23 209.93 171.91 207.72C163.46 202.1 156.59 194.4 151.97 185.36C151.52 184.48 150.4 182.27 148.59 178.75L112.97 177.9Z" id="aMSuOfuwJ"></path><path d="M117.41 184.54C103.34 193.23 94.54 198.67 91.02 200.84C91.02 200.84 76.11 207.58 66.9 212.66C65.91 213.21 59.39 214.92 47.32 217.82C39.54 219.68 33.8 226.27 33.02 234.22C32.77 236.72 33.27 231.66 33 234.35C32.2 242.54 32.56 250.8 34.08 258.88C34.41 260.6 35.22 264.89 36.51 271.76C33.74 269.81 32.01 268.59 31.32 268.1C21.11 260.9 14.63 249.53 13.64 237.07C13.33 233.28 13.69 237.72 13.31 232.96C12.57 223.64 16.28 214.51 23.33 208.36C25.25 206.68 19.93 211.33 21.87 209.63C29.17 203.27 37.79 198.61 47.11 196.02C51.1 194.91 48.29 195.69 52.12 194.62C61.9 191.9 70.82 186.7 78.01 179.54C78.71 178.84 80.47 177.09 83.28 174.3L117.41 184.54Z" id="c2Yd3MMgx5"></path><path d="M137.88 177.9C127.2 190.53 120.52 198.43 117.85 201.58C117.85 201.58 105.76 212.61 98.58 220.3C97.81 221.12 92.14 224.78 81.56 231.27C74.74 235.45 71.33 243.49 73.05 251.3C73.59 253.75 72.49 248.79 73.07 251.42C74.84 259.46 77.75 267.2 81.71 274.41C82.55 275.95 84.65 279.78 88.01 285.91C84.77 284.91 82.74 284.29 81.94 284.04C69.99 280.35 60.31 271.55 55.5 260.01C54.04 256.51 55.75 260.61 53.92 256.21C50.32 247.57 51.03 237.75 55.82 229.72C57.13 227.52 53.51 233.6 54.83 231.37C59.79 223.06 66.55 215.96 74.61 210.6C78.05 208.31 75.62 209.93 78.94 207.72C87.39 202.1 94.26 194.4 98.88 185.36C99.33 184.48 100.45 182.27 102.26 178.75L137.88 177.9Z" id="b1mGNFIcEi"></path><path d="M135.67 189.17C149.22 184.46 157.68 181.51 161.07 180.33C161.07 180.33 174.94 177.42 183.7 174.85C184.63 174.58 190.48 174.35 201.23 174.17C208.16 174.05 214.26 169.55 216.41 162.97C217.09 160.9 215.72 165.09 216.45 162.87C218.67 156.09 219.91 149.03 220.14 141.9C220.19 140.39 220.31 136.6 220.5 130.55C222.48 132.72 223.71 134.07 224.21 134.62C231.5 142.63 234.85 153.47 233.35 164.2C232.89 167.46 233.43 163.64 232.85 167.74C231.73 175.76 226.87 182.79 219.76 186.67C217.81 187.73 223.2 184.79 221.23 185.87C213.86 189.89 205.69 192.21 197.31 192.65C193.73 192.85 196.26 192.71 192.81 192.9C184.03 193.37 175.51 196.09 168.08 200.8C167.35 201.26 165.54 202.41 162.64 204.25L135.67 189.17Z" id="b2atycHyPV"></path><path d="M112.97 189.17C99.42 184.46 90.96 181.51 87.57 180.33C87.57 180.33 73.69 177.42 64.94 174.85C64.01 174.58 58.16 174.35 47.41 174.17C40.48 174.05 34.38 169.55 32.23 162.97C31.55 160.9 32.92 165.09 32.19 162.87C29.97 156.09 28.73 149.03 28.5 141.9C28.45 140.39 28.33 136.6 28.14 130.55C26.16 132.72 24.93 134.07 24.43 134.62C17.14 142.63 13.79 153.47 15.29 164.2C15.75 167.46 15.21 163.64 15.79 167.74C16.91 175.76 21.77 182.79 28.88 186.67C30.82 187.73 25.44 184.79 27.41 185.87C34.78 189.89 42.95 192.21 51.33 192.65C54.91 192.85 52.38 192.71 55.83 192.9C64.61 193.37 73.13 196.09 80.56 200.8C81.29 201.26 83.1 202.41 86 204.25L112.97 189.17Z" id="aaNsgy8bC"></path><path d="M120.41 138.23C120.41 146.45 113.74 153.11 105.53 153.11C97.32 153.11 90.65 146.45 90.65 138.23C90.65 130.02 97.32 123.35 105.53 123.35C113.74 123.35 120.41 130.02 120.41 138.23Z" id="a39mVNLSf"></path><path d="M160.66 138.23C160.66 146.45 153.99 153.11 145.78 153.11C137.57 153.11 130.9 146.45 130.9 138.23C130.9 130.02 137.57 123.35 145.78 123.35C153.99 123.35 160.66 130.02 160.66 138.23Z" id="e17SyBY1NM"></path><path d="M117.41 142.41C117.41 148.32 112.62 153.11 106.71 153.11C100.8 153.11 96.01 148.32 96.01 142.41C96.01 136.51 100.8 131.71 106.71 131.71C112.62 131.71 117.41 136.51 117.41 142.41Z" id="bWQ6V0pYC"></path><path d="M154.16 190.1C164.96 194.14 176.92 193.66 187.35 188.75C189.19 187.89 184.14 190.26 187.41 188.72C193.36 185.93 198.3 181.37 201.57 175.67C202.7 173.71 205.52 168.79 210.04 160.93C199.12 165.12 192.3 167.75 189.57 168.8C179.7 172.59 168.58 170.95 160.22 164.47C157.89 162.66 161.81 165.7 158.84 163.4C152.49 158.48 143.97 157.4 136.59 160.58C134.17 161.63 128.1 164.24 118.4 168.43C128.9 175.39 135.46 179.74 138.09 181.49C144.04 185.43 150.42 188.69 157.1 191.2C159.89 192.24 152.74 189.56 154.16 190.1Z" id="e4IIGkLt8"></path><path d="M100.15 190.1C89.35 194.14 77.39 193.66 66.96 188.75C65.12 187.89 70.17 190.26 66.9 188.72C60.96 185.93 56.01 181.37 52.74 175.67C51.61 173.71 48.79 168.79 44.27 160.93C55.19 165.12 62.01 167.75 64.74 168.8C74.61 172.59 85.74 170.95 94.09 164.47C96.42 162.66 92.5 165.7 95.47 163.4C101.82 158.48 110.34 157.4 117.72 160.58C120.14 161.63 126.21 164.24 135.91 168.43C125.41 175.39 118.85 179.74 116.22 181.49C110.27 185.43 103.89 188.69 97.21 191.2C94.42 192.24 101.57 189.56 100.15 190.1Z" id="lRUJ1OwTZ"></path><path d="M153.9 142.41C153.9 148.32 149.11 153.11 143.2 153.11C137.3 153.11 132.5 148.32 132.5 142.41C132.5 136.51 137.3 131.71 143.2 131.71C149.11 131.71 153.9 136.51 153.9 142.41Z" id="bmwMRoBFJ"></path></defs><g><g><g><use xlink:href="#h1aMOfa97m" opacity="1" fill="#bd7ec9" fill-opacity="1"></use></g><g><use xlink:href="#aDqmyMB9a" opacity="1" fill="#bd7ec9" fill-opacity="1"></use></g><g><use xlink:href="#b5O79yh051" opacity="1" fill="#bd7ec9" fill-opacity="1"></use><g><use xlink:href="#b5O79yh051" opacity="1" fill-opacity="0" stroke="#914b9f" stroke-width="1" stroke-opacity="1"></use></g></g><g><use xlink:href="#d2wHkp0RJ5" opacity="1" fill="#bd7ec9" fill-opacity="1"></use></g><g><use xlink:href="#aMSuOfuwJ" opacity="1" fill="#bd7ec9" fill-opacity="1"></use></g><g><use xlink:href="#c2Yd3MMgx5" opacity="1" fill="#bd7ec9" fill-opacity="1"></use></g><g><use xlink:href="#b1mGNFIcEi" opacity="1" fill="#bd7ec9" fill-opacity="1"></use></g><g><use xlink:href="#b2atycHyPV" opacity="1" fill="#bd7ec9" fill-opacity="1"></use></g><g><use xlink:href="#aaNsgy8bC" opacity="1" fill="#bd7ec9" fill-opacity="1"></use></g><g><use xlink:href="#a39mVNLSf" opacity="1" fill="#ffffff" fill-opacity="1"></use></g><g><use xlink:href="#e17SyBY1NM" opacity="1" fill="#ffffff" fill-opacity="1"></use></g><g><use xlink:href="#bWQ6V0pYC" opacity="1" fill="#000000" fill-opacity="1"></use></g><g><use xlink:href="#e4IIGkLt8" opacity="1" fill="#442d0b" fill-opacity="1"></use></g><g><use xlink:href="#lRUJ1OwTZ" opacity="1" fill="#442d0b" fill-opacity="1"></use></g><g><use xlink:href="#bmwMRoBFJ" opacity="1" fill="#000000" fill-opacity="1"></use></g></g></g></svg>