<?xml version="1.0" encoding="UTF-8" standalone="no"?>
<!DOCTYPE svg PUBLIC "-//W3C//DTD SVG 1.1//EN" "http://www.w3.org/Graphics/SVG/1.1/DTD/svg11.dtd">
<svg version="1.1" xmlns="http://www.w3.org/2000/svg" xmlns:xlink="http://www.w3.org/1999/xlink" preserveAspectRatio="xMidYMid meet" viewBox="0 0 400 100" width="400" height="100"><defs><path d="M315.85 32.9C321.11 32.9 325.38 37.17 325.38 42.43C325.38 48.27 325.38 56.25 325.38 62.08C325.38 67.35 321.11 71.61 315.85 71.61C272.01 71.61 150.04 71.61 106.2 71.61C100.94 71.61 96.67 67.35 96.67 62.08C96.67 56.25 96.67 48.27 96.67 42.43C96.67 37.17 100.94 32.9 106.2 32.9C150.04 32.9 272.01 32.9 315.85 32.9Z" id="j4CuePVrja"></path><path d="M48.01 51.18L42.58 71.61L89.01 71.61L100.47 51.18L89.01 32.9L42.58 32.9L48.01 51.18Z" id="bc8VyzPoS"></path><path d="M351.18 52.26C351.18 62.94 333.84 71.61 312.47 71.61C291.11 71.61 273.76 62.94 273.76 52.26C273.76 41.58 291.11 32.9 312.47 32.9C333.84 32.9 351.18 41.58 351.18 52.26Z" id="akRZhQapA"></path><path d="M154.41 68.92L154.41 35.59" id="a1saSpVTfS"></path><path d="M284.09 68.92L284.09 35.59" id="bgQbXwGih"></path></defs><g><g><g><use xlink:href="#j4CuePVrja" opacity="1" fill="#575a56" fill-opacity="1"></use></g><g><use xlink:href="#bc8VyzPoS" opacity="1" fill="#575a56" fill-opacity="1"></use></g><g><use xlink:href="#akRZhQapA" opacity="1" fill="#575a56" fill-opacity="1"></use></g><g><g><use xlink:href="#a1saSpVTfS" opacity="1" fill-opacity="0" stroke="#ffffff" stroke-width="3" stroke-opacity="1"></use></g></g><g><g><use xlink:href="#bgQbXwGih" opacity="1" fill-opacity="0" stroke="#ffffff" stroke-width="3" stroke-opacity="1"></use></g></g></g></g></svg>